<svg xmlns="http://www.w3.org/2000/svg" version="1.1" xmlns:xlink="http://www.w3.org/1999/xlink" xmlns:svgjs="http://svgjs.dev/svgjs" width="1000" height="623" viewBox="0 0 1000 623"><g transform="matrix(1,0,0,1,-0.6060606060606233,0.2522267206477409)"><svg viewBox="0 0 396 247" data-background-color="#ffffff" preserveAspectRatio="xMidYMid meet" height="623" width="1000" xmlns="http://www.w3.org/2000/svg" xmlns:xlink="http://www.w3.org/1999/xlink"><g id="tight-bounds" transform="matrix(1,0,0,1,0.2400000000000091,-0.09999999999999432)"><svg viewBox="0 0 395.52 247.2" height="247.2" width="395.52"><g><svg></svg></g><g><svg viewBox="0 0 395.52 247.2" height="247.2" width="395.52"><g><g><path xmlns="http://www.w3.org/2000/svg" d="M73.094 0c21.784 0 40.679 3.126 56.686 9.377 15.959 6.298 28.864 18.445 38.714 36.44 4.339 7.966 7.718 17.417 10.137 28.352l-70.944 0c-2.037-8.52-4.973-14.656-8.807-18.407-4.404-4.262-10.395-6.393-17.972-6.393h-9.589l0 24.8-70.325 0v-74.169zM154.784 219.497c-18.943 18.469-45.225 27.703-78.848 27.703h-74.942l0-74.169 70.325 0v24.445h8.524c8.051 0 14.325-2.249 18.824-6.748 3.732-3.732 6.617-9.631 8.654-17.697h70.945c-4.604 20.203-12.431 35.691-23.482 46.466zM296.143 0c31.966 0 56.354 7.032 73.165 21.097 14.982 12.576 23.288 30.267 24.919 53.072l-71.442 0c-0.665-7.531-2.277-13.312-4.835-17.341-3.41-5.446-9.85-8.169-19.321-8.169h-4.617l0 25.51-70.324 0 0-74.169zM294.012 247.2h-70.324l0-74.169 70.324 0z" fill="#0074d9" fill-rule="nonzero" stroke="none" stroke-width="1" stroke-linecap="butt" stroke-linejoin="miter" stroke-miterlimit="10" stroke-dasharray="" stroke-dashoffset="0" font-family="none" font-weight="none" font-size="none" text-anchor="none" style="mix-blend-mode: normal" data-fill-palette-color="tertiary"></path></g></g><g transform="matrix(1,0,0,1,0,85.33646594274433)"><svg viewBox="0 0 395.52 76.52706811451135" height="76.52706811451135" width="395.52"><g><svg viewBox="0 0 395.52 76.52706811451135" height="76.52706811451135" width="395.52"><g><svg viewBox="0 0 395.52 76.52706811451135" height="76.52706811451135" width="395.52"><g><svg viewBox="0 0 395.52 76.52706811451135" height="76.52706811451135" width="395.52"><g><svg viewBox="0 0 395.52 76.52706811451135" height="76.52706811451135" width="395.52"><g><svg viewBox="0 0 395.52 76.52706811451135" height="76.52706811451135" width="395.52"><g transform="matrix(1,0,0,1,0,0)"><svg width="395.52" viewBox="1.399999976158142 -38.20000076293945 202.5800018310547 39.20000076293945" height="76.52706811451135" data-palette-color="#0074d9"><path d="M11.55-34.8Q16.15-34.8 19.53-33.48 22.9-32.15 24.98-28.35 27.05-24.55 27.05-17.55L27.05-17.55Q27.05-7.8 23.05-3.9 19.05 0 11.95 0L11.95 0 1.4 0 1.4-34.8 11.55-34.8ZM12.65-27.85L11.3-27.85 11.3-7 12.5-7Q14.2-7 15.15-7.95 16.1-8.9 16.53-11.18 16.95-13.45 16.95-17.55L16.95-17.55Q16.95-21.65 16.53-23.85 16.1-26.05 15.18-26.95 14.25-27.85 12.65-27.85L12.65-27.85ZM51.45-13.7Q51.45-12.45 51.25-10.65L51.25-10.65 38-10.65Q38.25-7.75 39.12-6.75 40-5.75 41.7-5.75L41.7-5.75Q42.95-5.75 44.15-6.28 45.35-6.8 46.85-7.9L46.85-7.9 50.6-2.9Q48.85-1.15 46.4-0.08 43.95 1 40.95 1L40.95 1Q34.8 1 31.7-2.83 28.6-6.65 28.6-13.25L28.6-13.25Q28.6-19.8 31.55-23.75 34.5-27.7 40.1-27.7L40.1-27.7Q45.3-27.7 48.37-24.15 51.45-20.6 51.45-13.7L51.45-13.7ZM42.2-16L42.2-16.4Q42.2-19.25 41.8-20.5 41.4-21.75 40.2-21.75L40.2-21.75Q39.1-21.75 38.57-20.58 38.05-19.4 37.95-16L37.95-16 42.2-16ZM60.8 1Q57.05 1 55.02-1.13 53-3.25 53-6.95L53-6.95 53-37.2 62.5-38.2 62.5-7.45Q62.5-6.45 63.35-6.45L63.35-6.45Q63.65-6.45 64.05-6.55L64.05-6.55 65.65 0Q63.45 1 60.8 1L60.8 1ZM87.24-26.7L87.24 0 78.89 0 78.59-2.65Q77.39-0.85 75.87 0.08 74.34 1 72.34 1L72.34 1Q69.39 1 67.74-1.18 66.09-3.35 66.09-7L66.09-7 66.09-26.7 75.59-26.7 75.59-7.25Q75.59-5.95 76.29-5.95L76.29-5.95Q76.99-5.95 77.74-7.7L77.74-7.7 77.74-26.7 87.24-26.7ZM110.79-26.7L105.44-14.3 112.09 0 102.24 0 99.64-9.35 97.39 0 87.59 0 94.09-14 88.09-26.7 97.84-26.7 99.74-18.7 101.34-26.7 110.79-26.7ZM131.14-34.8Q137.89-34.8 141.44-31.83 144.99-28.85 144.99-23.15L144.99-23.15Q144.99-17.2 141.69-14.1 138.39-11 132.39-11L132.39-11 130.84-11 130.84 0 120.94 0 120.94-34.8 131.14-34.8ZM131.34-17.95Q133.39-17.95 134.16-19.15 134.94-20.35 134.94-23.15L134.94-23.15Q134.94-25.65 134.21-26.8 133.49-27.95 131.49-27.95L131.49-27.95 130.84-27.95 130.84-17.95 131.34-17.95ZM154.13 1Q150.38 1 148.36-1.13 146.33-3.25 146.33-6.95L146.33-6.95 146.33-37.2 155.83-38.2 155.83-7.45Q155.83-6.45 156.68-6.45L156.68-6.45Q156.98-6.45 157.38-6.55L157.38-6.55 158.98 0Q156.78 1 154.13 1L154.13 1ZM179.73-7.95Q179.73-6.75 179.96-6.23 180.18-5.7 180.88-5.35L180.88-5.35 178.98 0.8Q176.58 0.6 175.03-0.2 173.48-1 172.63-2.7L172.63-2.7Q170.18 1 165.88 1L165.88 1Q162.53 1 160.56-1.33 158.58-3.65 158.58-7.5L158.58-7.5Q158.58-11.9 161.36-14.25 164.13-16.6 169.48-16.6L169.48-16.6 170.48-16.6 170.48-17.35Q170.48-19.6 169.96-20.35 169.43-21.1 167.73-21.1L167.73-21.1Q165.68-21.1 162.18-19.8L162.18-19.8 160.13-25.6Q162.18-26.6 164.78-27.15 167.38-27.7 169.68-27.7L169.68-27.7Q174.78-27.7 177.26-25.38 179.73-23.05 179.73-17.9L179.73-17.9 179.73-7.95ZM169.03-5.65Q169.43-5.65 169.83-6.03 170.23-6.4 170.48-7L170.48-7 170.48-11.6 170.28-11.6Q168.93-11.6 168.33-10.83 167.73-10.05 167.73-8.4L167.73-8.4Q167.73-7.05 168.08-6.35 168.43-5.65 169.03-5.65L169.03-5.65ZM197.98-27.7Q200.78-27.7 202.38-25.68 203.98-23.65 203.98-20.15L203.98-20.15 203.98 0 194.48 0 194.48-19.25Q194.48-20.5 193.93-20.5L193.93-20.5Q193.33-20.5 192.08-18.35L192.08-18.35 192.08 0 182.58 0 182.58-26.7 190.88-26.7 191.53-24.05Q192.88-25.95 194.4-26.83 195.93-27.7 197.98-27.7L197.98-27.7Z" opacity="1" transform="matrix(1,0,0,1,0,0)" fill="#0074d9" class="undefined-text-0" data-fill-palette-color="primary" id="text-0"></path></svg></g></svg></g></svg></g></svg></g><g></g></svg></g></svg></g></svg></g></svg></g><defs></defs></svg><rect width="395.52" height="247.2" fill="none" stroke="none" visibility="hidden"></rect></g></svg></g></svg>