<svg xmlns="http://www.w3.org/2000/svg" version="1.1" xmlns:xlink="http://www.w3.org/1999/xlink" xmlns:svgjs="http://svgjs.dev/svgjs" width="1000" height="623" viewBox="0 0 1000 623"><g transform="matrix(1,0,0,1,-0.6060606060606233,0.2522267206477409)"><svg viewBox="0 0 396 247" data-background-color="#ffffff" preserveAspectRatio="xMidYMid meet" height="623" width="1000" xmlns="http://www.w3.org/2000/svg" xmlns:xlink="http://www.w3.org/1999/xlink"><g id="tight-bounds" transform="matrix(1,0,0,1,0.2400000000000091,-0.09999999999999432)"><svg viewBox="0 0 395.52 247.2" height="247.2" width="395.52"><g><svg></svg></g><g><svg viewBox="0 0 395.52 247.2" height="247.2" width="395.52"><g><g><path xmlns="http://www.w3.org/2000/svg" d="M73.45 0c31.966 0 56.354 7.032 73.165 21.097 16.801 14.104 25.207 34.64 25.217 61.609l-71.389 0c-0.005-11.814-1.71-20.44-5.115-25.878-3.457-5.446-9.921-8.169-19.392-8.169h-4.617l0 34.047-70.325 0v-82.706zM82.329 169.062h-11.01v78.138h-70.325v-82.706h116.182c-10.289 3.046-21.905 4.569-34.847 4.568zM296.143 0c31.966 0 56.354 7.032 73.165 21.097 16.801 14.104 25.207 34.64 25.218 61.609l-71.39 0c-0.005-11.814-1.733-20.44-5.186-25.878-3.41-5.446-9.85-8.169-19.321-8.169h-4.617l0 34.047-70.324 0v-82.706zM305.022 169.062h-11.01v78.138h-70.324l0-82.706h116.181c-10.289 3.046-21.905 4.569-34.847 4.568z" fill="#ffc200" fill-rule="nonzero" stroke="none" stroke-width="1" stroke-linecap="butt" stroke-linejoin="miter" stroke-miterlimit="10" stroke-dasharray="" stroke-dashoffset="0" font-family="none" font-weight="none" font-size="none" text-anchor="none" style="mix-blend-mode: normal" data-fill-palette-color="tertiary"></path></g></g><g transform="matrix(1,0,0,1,0,91.9449138094336)"><svg viewBox="0 0 395.52 63.31017238113279" height="63.31017238113279" width="395.52"><g><svg viewBox="0 0 395.52 63.31017238113279" height="63.31017238113279" width="395.52"><g><svg viewBox="0 0 395.52 63.31017238113279" height="63.31017238113279" width="395.52"><g><svg viewBox="0 0 395.52 63.31017238113279" height="63.31017238113279" width="395.52"><g><svg viewBox="0 0 395.52 63.31017238113279" height="63.31017238113279" width="395.52"><g><svg viewBox="0 0 395.52 63.31017238113279" height="63.31017238113279" width="395.52"><g transform="matrix(1,0,0,1,0,0)"><svg width="395.52" viewBox="1.399999976158142 -41.25 263.9200134277344 42.25" height="63.31017238113279" data-palette-color="#ffc200"><path d="M11.6-34.8Q18.35-34.8 21.9-31.83 25.45-28.85 25.45-23.15L25.45-23.15Q25.45-17.2 22.15-14.1 18.85-11 12.85-11L12.85-11 11.3-11 11.3 0 1.4 0 1.4-34.8 11.6-34.8ZM11.8-17.95Q13.85-17.95 14.63-19.15 15.4-20.35 15.4-23.15L15.4-23.15Q15.4-25.65 14.68-26.8 13.95-27.95 11.95-27.95L11.95-27.95 11.3-27.95 11.3-17.95 11.8-17.95ZM41.65-27.55Q42.75-27.55 43.8-27.1L43.8-27.1 42.25-18Q41.35-18.3 40.35-18.3L40.35-18.3Q38.55-18.3 37.77-17.03 37-15.75 36.55-13.3L36.55-13.3 36.55 0 27.05 0 27.05-26.7 35.35-26.7 36-22.55Q37.8-27.55 41.65-27.55L41.65-27.55ZM66.59-13.7Q66.59-12.45 66.4-10.65L66.4-10.65 53.15-10.65Q53.4-7.75 54.27-6.75 55.15-5.75 56.84-5.75L56.84-5.75Q58.09-5.75 59.3-6.28 60.5-6.8 62-7.9L62-7.9 65.75-2.9Q64-1.15 61.55-0.08 59.09 1 56.09 1L56.09 1Q49.95 1 46.84-2.83 43.75-6.65 43.75-13.25L43.75-13.25Q43.75-19.8 46.7-23.75 49.65-27.7 55.25-27.7L55.25-27.7Q60.45-27.7 63.52-24.15 66.59-20.6 66.59-13.7L66.59-13.7ZM57.34-16L57.34-16.4Q57.34-19.25 56.95-20.5 56.55-21.75 55.34-21.75L55.34-21.75Q54.25-21.75 53.72-20.58 53.2-19.4 53.09-16L53.09-16 57.34-16ZM94.84-27.7Q97.44-27.7 99.02-25.65 100.59-23.6 100.59-20.15L100.59-20.15 100.59 0 91.29 0 91.29-19.3Q91.29-19.95 91.17-20.25 91.04-20.55 90.69-20.55L90.69-20.55Q89.94-20.55 89.09-18.75L89.09-18.75 89.09 0 79.89 0 79.89-19.3Q79.89-19.95 79.77-20.25 79.64-20.55 79.29-20.55L79.29-20.55Q78.54-20.55 77.69-18.75L77.69-18.75 77.69 0 68.39 0 68.39-26.7 76.69-26.7 77.24-23.9Q78.59-25.85 80.12-26.78 81.64-27.7 83.49-27.7L83.49-27.7Q85.19-27.7 86.49-26.68 87.79-25.65 88.49-23.75L88.49-23.75Q89.84-25.8 91.37-26.75 92.89-27.7 94.84-27.7L94.84-27.7ZM103.14-26.7L112.64-26.7 112.64 0 103.14 0 103.14-26.7ZM107.89-41.25Q110.14-41.25 111.59-39.8 113.04-38.35 113.04-36.15L113.04-36.15Q113.04-33.9 111.59-32.45 110.14-31 107.89-31L107.89-31Q105.64-31 104.19-32.45 102.74-33.9 102.74-36.15L102.74-36.15Q102.74-38.35 104.19-39.8 105.64-41.25 107.89-41.25L107.89-41.25ZM136.34-26.7L136.34 0 127.99 0 127.69-2.65Q126.49-0.85 124.96 0.08 123.44 1 121.44 1L121.44 1Q118.49 1 116.84-1.18 115.19-3.35 115.19-7L115.19-7 115.19-26.7 124.69-26.7 124.69-7.25Q124.69-5.95 125.39-5.95L125.39-5.95Q126.09-5.95 126.84-7.7L126.84-7.7 126.84-26.7 136.34-26.7ZM165.49-27.7Q168.09-27.7 169.66-25.65 171.24-23.6 171.24-20.15L171.24-20.15 171.24 0 161.94 0 161.94-19.3Q161.94-19.95 161.81-20.25 161.69-20.55 161.34-20.55L161.34-20.55Q160.59-20.55 159.74-18.75L159.74-18.75 159.74 0 150.53 0 150.53-19.3Q150.53-19.95 150.41-20.25 150.28-20.55 149.94-20.55L149.94-20.55Q149.19-20.55 148.34-18.75L148.34-18.75 148.34 0 139.03 0 139.03-26.7 147.34-26.7 147.88-23.9Q149.24-25.85 150.76-26.78 152.28-27.7 154.13-27.7L154.13-27.7Q155.84-27.7 157.13-26.68 158.44-25.65 159.13-23.75L159.13-23.75Q160.49-25.8 162.01-26.75 163.53-27.7 165.49-27.7L165.49-27.7ZM192.48-34.8Q199.23-34.8 202.78-31.83 206.33-28.85 206.33-23.15L206.33-23.15Q206.33-17.2 203.03-14.1 199.73-11 193.73-11L193.73-11 192.18-11 192.18 0 182.28 0 182.28-34.8 192.48-34.8ZM192.68-17.95Q194.73-17.95 195.5-19.15 196.28-20.35 196.28-23.15L196.28-23.15Q196.28-25.65 195.56-26.8 194.83-27.95 192.83-27.95L192.83-27.95 192.18-27.95 192.18-17.95 192.68-17.95ZM215.48 1Q211.73 1 209.7-1.13 207.68-3.25 207.68-6.95L207.68-6.95 207.68-37.2 217.18-38.2 217.18-7.45Q217.18-6.45 218.03-6.45L218.03-6.45Q218.33-6.45 218.73-6.55L218.73-6.55 220.33 0Q218.13 1 215.48 1L215.48 1ZM241.07-7.95Q241.07-6.75 241.3-6.23 241.52-5.7 242.22-5.35L242.22-5.35 240.32 0.8Q237.92 0.6 236.38-0.2 234.82-1 233.97-2.7L233.97-2.7Q231.52 1 227.22 1L227.22 1Q223.88 1 221.9-1.33 219.92-3.65 219.92-7.5L219.92-7.5Q219.92-11.9 222.7-14.25 225.47-16.6 230.82-16.6L230.82-16.6 231.82-16.6 231.82-17.35Q231.82-19.6 231.3-20.35 230.77-21.1 229.07-21.1L229.07-21.1Q227.02-21.1 223.52-19.8L223.52-19.8 221.47-25.6Q223.52-26.6 226.13-27.15 228.72-27.7 231.02-27.7L231.02-27.7Q236.13-27.7 238.6-25.38 241.07-23.05 241.07-17.9L241.07-17.9 241.07-7.95ZM230.38-5.65Q230.77-5.65 231.17-6.03 231.57-6.4 231.82-7L231.82-7 231.82-11.6 231.63-11.6Q230.27-11.6 229.67-10.83 229.07-10.05 229.07-8.4L229.07-8.4Q229.07-7.05 229.42-6.35 229.77-5.65 230.38-5.65L230.38-5.65ZM259.32-27.7Q262.12-27.7 263.72-25.68 265.32-23.65 265.32-20.15L265.32-20.15 265.32 0 255.82 0 255.82-19.25Q255.82-20.5 255.27-20.5L255.27-20.5Q254.67-20.5 253.42-18.35L253.42-18.35 253.42 0 243.92 0 243.92-26.7 252.22-26.7 252.87-24.05Q254.22-25.95 255.75-26.83 257.27-27.7 259.32-27.7L259.32-27.7Z" opacity="1" transform="matrix(1,0,0,1,0,0)" fill="#ffc200" class="undefined-text-0" data-fill-palette-color="primary" id="text-0"></path></svg></g></svg></g></svg></g></svg></g><g></g></svg></g></svg></g></svg></g></svg></g><defs></defs></svg><rect width="395.52" height="247.2" fill="none" stroke="none" visibility="hidden"></rect></g></svg></g></svg>