<svg xmlns="http://www.w3.org/2000/svg" version="1.1" xmlns:xlink="http://www.w3.org/1999/xlink" xmlns:svgjs="http://svgjs.dev/svgjs" width="1000" height="623" viewBox="0 0 1000 623"><g transform="matrix(1,0,0,1,-0.6060606060606233,0.2522267206477977)"><svg viewBox="0 0 396 247" data-background-color="#ffffff" preserveAspectRatio="xMidYMid meet" height="623" width="1000" xmlns="http://www.w3.org/2000/svg" xmlns:xlink="http://www.w3.org/1999/xlink"><g id="tight-bounds" transform="matrix(1,0,0,1,0.2400000000000091,-0.09999999999999432)"><svg viewBox="0 0 395.52 247.2" height="247.2" width="395.52"><g><svg></svg></g><g><svg viewBox="0 0 395.52 247.2" height="247.2" width="395.52"><g><g><path xmlns="http://www.w3.org/2000/svg" d="M129.982 7.859c12.091 5.284 22.951 13.188 32.579 23.713l-27.541 33.587c-13.211-11.867-25.974-17.801-38.29-17.801-6.493 0-11.308 1.679-14.442 5.038-3.135 3.359-4.702 7.837-4.702 13.434 0 5.598 2.127 10.188 6.381 13.771 2.412 2.031 6.264 4.458 11.556 7.282l-85.121 0c-0.889-4.713-1.334-9.715-1.334-15.007 0-14.554 3.426-27.273 10.278-38.155 6.807-10.837 16.211-19.167 28.213-24.988 11.957-5.822 25.437-8.733 40.439-8.733 15.898 0 29.892 2.62 41.984 7.859zM166.927 170.622c0 15.002-3.403 28.325-10.21 39.968-6.852 11.643-16.659 20.645-29.422 27.004-12.763 6.404-27.765 9.606-45.007 9.606-18.361 0-33.968-3.135-46.82-9.404-12.897-6.27-24.384-14.666-34.46-25.191l30.9-34.594c8.061 7.165 15.629 12.539 22.704 16.122 7.031 3.583 14.353 5.374 21.966 5.374 14.33 0 21.496-7.613 21.496-22.84 0-6.403-1.81-11.853-5.429-16.35h73.864c0.279 3.277 0.418 6.712 0.418 10.305zM301.477 6.717c30.228 0 53.291 6.65 69.189 19.951 15.898 13.345 23.847 32.781 23.846 58.307 0 0.64-0.004 1.275-0.012 1.908l-67.511 0c0.009-0.626 0.014-1.262 0.014-1.908 0-11.196-1.612-19.368-4.837-24.518-3.269-5.15-9.382-7.725-18.338-7.725h-4.367v34.151l-66.502 0v-80.166zM309.873 166.591h-10.412v73.892h-66.502l0-80.166h115.696c-11.106 4.183-24.033 6.274-38.782 6.274z" fill="#89939e" fill-rule="nonzero" stroke="none" stroke-width="1" stroke-linecap="butt" stroke-linejoin="miter" stroke-miterlimit="10" stroke-dasharray="" stroke-dashoffset="0" font-family="none" font-weight="none" font-size="none" text-anchor="none" style="mix-blend-mode: normal" data-fill-palette-color="tertiary"></path></g></g><g transform="matrix(1,0,0,1,0,95.177664527956)"><svg viewBox="0 0 395.52 56.844670944087994" height="56.844670944087994" width="395.52"><g><svg viewBox="0 0 395.52 56.844670944087994" height="56.844670944087994" width="395.52"><g><svg viewBox="0 0 395.52 56.844670944087994" height="56.844670944087994" width="395.52"><g><svg viewBox="0 0 395.52 56.844670944087994" height="56.844670944087994" width="395.52"><g><svg viewBox="0 0 395.52 56.844670944087994" height="56.844670944087994" width="395.52"><g><svg viewBox="0 0 395.52 56.844670944087994" height="56.844670944087994" width="395.52"><g transform="matrix(1,0,0,1,0,0)"><svg width="395.52" viewBox="-0.4000000059604645 -38.20000076293945 272.7200012207031 39.20000076293945" height="56.844670944087994" data-palette-color="#89939e"><path d="M12.55-35.8Q16.1-35.8 18.8-34.63 21.5-33.45 23.65-31.1L23.65-31.1 19.55-26.1Q16.6-28.75 13.85-28.75L13.85-28.75Q12.4-28.75 11.7-28 11-27.25 11-26L11-26Q11-24.75 11.95-23.95 12.9-23.15 15.85-21.8L15.85-21.8Q18.95-20.35 20.73-18.93 22.5-17.5 23.4-15.48 24.3-13.45 24.3-10.4L24.3-10.4Q24.3-7.05 22.78-4.45 21.25-1.85 18.4-0.43 15.55 1 11.7 1L11.7 1Q7.6 1 4.73-0.4 1.85-1.8-0.4-4.15L-0.4-4.15 4.2-9.3Q6-7.7 7.58-6.9 9.15-6.1 10.85-6.1L10.85-6.1Q14.05-6.1 14.05-9.5L14.05-9.5Q14.05-11.05 13.1-12.1 12.15-13.15 9.85-14.2L9.85-14.2Q4.8-16.45 2.8-18.9 0.8-21.35 0.8-25.1L0.8-25.1Q0.8-28.35 2.33-30.78 3.85-33.2 6.53-34.5 9.2-35.8 12.55-35.8L12.55-35.8ZM39.45-7L42.45-1.25Q41.05-0.15 39.15 0.43 37.25 1 35.4 1L35.4 1Q31 1 28.85-1.48 26.7-3.95 26.7-8.1L26.7-8.1 26.7-20.25 24.45-20.25 24.45-26.7 26.7-26.7 26.7-32.35 36.2-33.45 36.2-26.7 41.05-26.7 40.1-20.25 36.2-20.25 36.2-8.2Q36.2-7.35 36.6-6.9 37-6.45 37.65-6.45L37.65-6.45Q38.45-6.45 39.45-7L39.45-7ZM63.05-7.95Q63.05-6.75 63.27-6.23 63.5-5.7 64.2-5.35L64.2-5.35 62.3 0.8Q59.9 0.6 58.34-0.2 56.8-1 55.95-2.7L55.95-2.7Q53.5 1 49.2 1L49.2 1Q45.84 1 43.87-1.33 41.9-3.65 41.9-7.5L41.9-7.5Q41.9-11.9 44.67-14.25 47.45-16.6 52.8-16.6L52.8-16.6 53.8-16.6 53.8-17.35Q53.8-19.6 53.27-20.35 52.75-21.1 51.05-21.1L51.05-21.1Q49-21.1 45.5-19.8L45.5-19.8 43.45-25.6Q45.5-26.6 48.09-27.15 50.7-27.7 53-27.7L53-27.7Q58.09-27.7 60.57-25.38 63.05-23.05 63.05-17.9L63.05-17.9 63.05-7.95ZM52.34-5.65Q52.75-5.65 53.15-6.03 53.55-6.4 53.8-7L53.8-7 53.8-11.6 53.59-11.6Q52.25-11.6 51.65-10.83 51.05-10.05 51.05-8.4L51.05-8.4Q51.05-7.05 51.4-6.35 51.75-5.65 52.34-5.65L52.34-5.65ZM81.29-27.7Q84.09-27.7 85.69-25.68 87.29-23.65 87.29-20.15L87.29-20.15 87.29 0 77.79 0 77.79-19.25Q77.79-20.5 77.24-20.5L77.24-20.5Q76.64-20.5 75.39-18.35L75.39-18.35 75.39 0 65.89 0 65.89-26.7 74.19-26.7 74.84-24.05Q76.19-25.95 77.72-26.83 79.24-27.7 81.29-27.7L81.29-27.7ZM102.94-38.15L112.44-37.2 112.44 0 103.99 0 103.74-2.5Q102.59-0.85 101.17 0.08 99.74 1 97.59 1L97.59 1Q93.49 1 91.34-2.7 89.19-6.4 89.19-13.45L89.19-13.45Q89.19-17.8 90.37-21.03 91.54-24.25 93.64-25.98 95.74-27.7 98.44-27.7L98.44-27.7Q101.14-27.7 102.94-25.6L102.94-25.6 102.94-38.15ZM100.99-5.8Q102.14-5.8 102.94-7.6L102.94-7.6 102.94-19.65Q102.54-20.3 102.17-20.6 101.79-20.9 101.34-20.9L101.34-20.9Q98.89-20.9 98.89-13.4L98.89-13.4Q98.89-8.8 99.47-7.3 100.04-5.8 100.99-5.8L100.99-5.8ZM135.29-7.95Q135.29-6.75 135.51-6.23 135.74-5.7 136.44-5.35L136.44-5.35 134.54 0.8Q132.14 0.6 130.59-0.2 129.04-1 128.19-2.7L128.19-2.7Q125.74 1 121.44 1L121.44 1Q118.09 1 116.11-1.33 114.14-3.65 114.14-7.5L114.14-7.5Q114.14-11.9 116.91-14.25 119.69-16.6 125.04-16.6L125.04-16.6 126.04-16.6 126.04-17.35Q126.04-19.6 125.51-20.35 124.99-21.1 123.29-21.1L123.29-21.1Q121.24-21.1 117.74-19.8L117.74-19.8 115.69-25.6Q117.74-26.6 120.34-27.15 122.94-27.7 125.24-27.7L125.24-27.7Q130.34-27.7 132.81-25.38 135.29-23.05 135.29-17.9L135.29-17.9 135.29-7.95ZM124.59-5.65Q124.99-5.65 125.39-6.03 125.79-6.4 126.04-7L126.04-7 126.04-11.6 125.84-11.6Q124.49-11.6 123.89-10.83 123.29-10.05 123.29-8.4L123.29-8.4Q123.29-7.05 123.64-6.35 123.99-5.65 124.59-5.65L124.59-5.65ZM152.74-27.55Q153.84-27.55 154.89-27.1L154.89-27.1 153.34-18Q152.44-18.3 151.44-18.3L151.44-18.3Q149.64-18.3 148.86-17.03 148.09-15.75 147.64-13.3L147.64-13.3 147.64 0 138.14 0 138.14-26.7 146.44-26.7 147.09-22.55Q148.89-27.55 152.74-27.55L152.74-27.55ZM168.58-38.15L178.08-37.2 178.08 0 169.63 0 169.38-2.5Q168.23-0.85 166.81 0.08 165.38 1 163.23 1L163.23 1Q159.13 1 156.98-2.7 154.83-6.4 154.83-13.45L154.83-13.45Q154.83-17.8 156.01-21.03 157.18-24.25 159.28-25.98 161.38-27.7 164.08-27.7L164.08-27.7Q166.78-27.7 168.58-25.6L168.58-25.6 168.58-38.15ZM166.63-5.8Q167.78-5.8 168.58-7.6L168.58-7.6 168.58-19.65Q168.18-20.3 167.81-20.6 167.43-20.9 166.98-20.9L166.98-20.9Q164.53-20.9 164.53-13.4L164.53-13.4Q164.53-8.8 165.11-7.3 165.68-5.8 166.63-5.8L166.63-5.8ZM199.48-34.8Q206.23-34.8 209.78-31.83 213.33-28.85 213.33-23.15L213.33-23.15Q213.33-17.2 210.03-14.1 206.73-11 200.73-11L200.73-11 199.18-11 199.18 0 189.28 0 189.28-34.8 199.48-34.8ZM199.68-17.95Q201.73-17.95 202.5-19.15 203.28-20.35 203.28-23.15L203.28-23.15Q203.28-25.65 202.55-26.8 201.83-27.95 199.83-27.95L199.83-27.95 199.18-27.95 199.18-17.95 199.68-17.95ZM222.48 1Q218.73 1 216.7-1.13 214.68-3.25 214.68-6.95L214.68-6.95 214.68-37.2 224.18-38.2 224.18-7.45Q224.18-6.45 225.03-6.45L225.03-6.45Q225.33-6.45 225.73-6.55L225.73-6.55 227.33 0Q225.13 1 222.48 1L222.48 1ZM248.07-7.95Q248.07-6.75 248.3-6.23 248.52-5.7 249.22-5.35L249.22-5.35 247.32 0.8Q244.92 0.6 243.37-0.2 241.82-1 240.97-2.7L240.97-2.7Q238.52 1 234.22 1L234.22 1Q230.87 1 228.9-1.33 226.92-3.65 226.92-7.5L226.92-7.5Q226.92-11.9 229.7-14.25 232.47-16.6 237.82-16.6L237.82-16.6 238.82-16.6 238.82-17.35Q238.82-19.6 238.3-20.35 237.77-21.1 236.07-21.1L236.07-21.1Q234.02-21.1 230.52-19.8L230.52-19.8 228.47-25.6Q230.52-26.6 233.12-27.15 235.72-27.7 238.02-27.7L238.02-27.7Q243.12-27.7 245.6-25.38 248.07-23.05 248.07-17.9L248.07-17.9 248.07-7.95ZM237.37-5.65Q237.77-5.65 238.17-6.03 238.57-6.4 238.82-7L238.82-7 238.82-11.6 238.62-11.6Q237.27-11.6 236.67-10.83 236.07-10.05 236.07-8.4L236.07-8.4Q236.07-7.05 236.42-6.35 236.77-5.65 237.37-5.65L237.37-5.65ZM266.32-27.7Q269.12-27.7 270.72-25.68 272.32-23.65 272.32-20.15L272.32-20.15 272.32 0 262.82 0 262.82-19.25Q262.82-20.5 262.27-20.5L262.27-20.5Q261.67-20.5 260.42-18.35L260.42-18.35 260.42 0 250.92 0 250.92-26.7 259.22-26.7 259.87-24.05Q261.22-25.95 262.75-26.83 264.27-27.7 266.32-27.7L266.32-27.7Z" opacity="1" transform="matrix(1,0,0,1,0,0)" fill="#89939e" class="undefined-text-0" data-fill-palette-color="primary" id="text-0"></path></svg></g></svg></g></svg></g></svg></g><g></g></svg></g></svg></g></svg></g></svg></g><defs></defs></svg><rect width="395.52" height="247.2" fill="none" stroke="none" visibility="hidden"></rect></g></svg></g></svg>