<svg xmlns="http://www.w3.org/2000/svg" version="1.1" xmlns:xlink="http://www.w3.org/1999/xlink" xmlns:svgjs="http://svgjs.dev/svgjs" width="1000" height="623" viewBox="0 0 1000 623"><g transform="matrix(1,0,0,1,-0.6060512046379358,0.2522267206477977)"><svg viewBox="0 0 396 247" data-background-color="#ffffff" preserveAspectRatio="xMidYMid meet" height="623" width="1000" xmlns="http://www.w3.org/2000/svg" xmlns:xlink="http://www.w3.org/1999/xlink"><g id="tight-bounds" transform="matrix(1,0,0,1,0.23999633157222888,-0.09999999999999432)"><svg viewBox="0 0 395.52 247.2" height="247.2" width="395.52"><g><svg></svg></g><g><svg viewBox="0 0 395.52 247.2" height="247.2" width="395.52"><g><g><path xmlns="http://www.w3.org/2000/svg" d="M173.524 0l0 81.989-68.455 0v-81.989zM173.524 168.027c0 23.279-7.26 42.295-21.781 57.046-14.521 14.751-35.956 22.127-64.307 22.127-28.581 0-50.131-7.099-64.652-21.297-14.521-14.152-21.781-33.444-21.781-57.876l0-2.816 68.455 0v0.741c0 11.524 1.337 19.753 4.011 24.686 2.628 4.979 7.283 7.468 13.967 7.468 6.684 0 11.294-2.535 13.83-7.606 2.535-5.071 3.803-13.253 3.803-24.548l0-0.741 68.455 0zM1.003 0h68.455l0 81.989-68.455 0zM298.749 0c31.116 0 54.856 6.846 71.221 20.537 16.365 13.737 24.547 33.744 24.547 60.019 0 0.48-0.002 0.957-0.007 1.433l-69.493 0c0.005-0.473 0.007-0.95 0.008-1.433 0-11.524-1.66-19.937-4.979-25.239-3.365-5.301-9.658-7.952-18.877-7.951h-4.494l0 34.623h-68.456v-81.989zM296.675 240.631h-68.456l0-75.42h68.456z" fill="#0fe627" fill-rule="nonzero" stroke="none" stroke-width="1" stroke-linecap="butt" stroke-linejoin="miter" stroke-miterlimit="10" stroke-dasharray="" stroke-dashoffset="0" font-family="none" font-weight="none" font-size="none" text-anchor="none" style="mix-blend-mode: normal" data-fill-palette-color="tertiary"></path></g></g><g transform="matrix(1,0,0,1,0,91.38966846569005)"><svg viewBox="0 0 395.52 64.42066306861989" height="64.42066306861989" width="395.52"><g><svg viewBox="0 0 395.52 64.42066306861989" height="64.42066306861989" width="395.52"><g><svg viewBox="0 0 395.52 64.42066306861989" height="64.42066306861989" width="395.52"><g><svg viewBox="0 0 395.52 64.42066306861989" height="64.42066306861989" width="395.52"><g><svg viewBox="0 0 395.52 64.42066306861989" height="64.42066306861989" width="395.52"><g><svg viewBox="0 0 395.52 64.42066306861989" height="64.42066306861989" width="395.52"><g transform="matrix(1,0,0,1,0,0)"><svg width="395.52" viewBox="0.9000000357627869 -41.25 259.3699951171875 42.25" height="64.42066306861989" data-palette-color="#0fe627"><path d="M25.85-34.8L25.85-10.5Q25.85-5.45 22.7-2.25 19.55 0.95 13.4 0.95L13.4 0.95Q7.2 0.95 4.05-2.13 0.9-5.2 0.9-10.5L0.9-10.5 0.9-34.8 10.8-34.8 10.8-10.8Q10.8-8.3 11.38-7.23 11.95-6.15 13.4-6.15L13.4-6.15Q14.85-6.15 15.4-7.25 15.95-8.35 15.95-10.8L15.95-10.8 15.95-34.8 25.85-34.8ZM35.65 1Q31.9 1 29.87-1.13 27.85-3.25 27.85-6.95L27.85-6.95 27.85-37.2 37.35-38.2 37.35-7.45Q37.35-6.45 38.2-6.45L38.2-6.45Q38.5-6.45 38.9-6.55L38.9-6.55 40.5 0Q38.3 1 35.65 1L35.65 1ZM54.5-7L57.5-1.25Q56.1-0.15 54.2 0.43 52.3 1 50.45 1L50.45 1Q46.05 1 43.9-1.48 41.75-3.95 41.75-8.1L41.75-8.1 41.75-20.25 39.5-20.25 39.5-26.7 41.75-26.7 41.75-32.35 51.25-33.45 51.25-26.7 56.1-26.7 55.15-20.25 51.25-20.25 51.25-8.2Q51.25-7.35 51.65-6.9 52.05-6.45 52.7-6.45L52.7-6.45Q53.5-6.45 54.5-7L54.5-7ZM57.94-26.7L67.44-26.7 67.44 0 57.94 0 57.94-26.7ZM62.69-41.25Q64.94-41.25 66.39-39.8 67.84-38.35 67.84-36.15L67.84-36.15Q67.84-33.9 66.39-32.45 64.94-31 62.69-31L62.69-31Q60.44-31 58.99-32.45 57.54-33.9 57.54-36.15L57.54-36.15Q57.54-38.35 58.99-39.8 60.44-41.25 62.69-41.25L62.69-41.25ZM96.59-27.7Q99.19-27.7 100.77-25.65 102.34-23.6 102.34-20.15L102.34-20.15 102.34 0 93.04 0 93.04-19.3Q93.04-19.95 92.92-20.25 92.79-20.55 92.44-20.55L92.44-20.55Q91.69-20.55 90.84-18.75L90.84-18.75 90.84 0 81.64 0 81.64-19.3Q81.64-19.95 81.52-20.25 81.39-20.55 81.04-20.55L81.04-20.55Q80.29-20.55 79.44-18.75L79.44-18.75 79.44 0 70.14 0 70.14-26.7 78.44-26.7 78.99-23.9Q80.34-25.85 81.87-26.78 83.39-27.7 85.24-27.7L85.24-27.7Q86.94-27.7 88.24-26.68 89.54-25.65 90.24-23.75L90.24-23.75Q91.59-25.8 93.12-26.75 94.64-27.7 96.59-27.7L96.59-27.7ZM125.04-7.95Q125.04-6.75 125.26-6.23 125.49-5.7 126.19-5.35L126.19-5.35 124.29 0.8Q121.89 0.6 120.34-0.2 118.79-1 117.94-2.7L117.94-2.7Q115.49 1 111.19 1L111.19 1Q107.84 1 105.86-1.33 103.89-3.65 103.89-7.5L103.89-7.5Q103.89-11.9 106.66-14.25 109.44-16.6 114.79-16.6L114.79-16.6 115.79-16.6 115.79-17.35Q115.79-19.6 115.26-20.35 114.74-21.1 113.04-21.1L113.04-21.1Q110.99-21.1 107.49-19.8L107.49-19.8 105.44-25.6Q107.49-26.6 110.09-27.15 112.69-27.7 114.99-27.7L114.99-27.7Q120.09-27.7 122.56-25.38 125.04-23.05 125.04-17.9L125.04-17.9 125.04-7.95ZM114.34-5.65Q114.74-5.65 115.14-6.03 115.54-6.4 115.79-7L115.79-7 115.79-11.6 115.59-11.6Q114.24-11.6 113.64-10.83 113.04-10.05 113.04-8.4L113.04-8.4Q113.04-7.05 113.39-6.35 113.74-5.65 114.34-5.65L114.34-5.65ZM141.29-7L144.29-1.25Q142.89-0.15 140.99 0.43 139.09 1 137.24 1L137.24 1Q132.84 1 130.69-1.48 128.54-3.95 128.54-8.1L128.54-8.1 128.54-20.25 126.29-20.25 126.29-26.7 128.54-26.7 128.54-32.35 138.04-33.45 138.04-26.7 142.89-26.7 141.94-20.25 138.04-20.25 138.04-8.2Q138.04-7.35 138.44-6.9 138.84-6.45 139.49-6.45L139.49-6.45Q140.29-6.45 141.29-7L141.29-7ZM166.93-13.7Q166.93-12.45 166.73-10.65L166.73-10.65 153.48-10.65Q153.73-7.75 154.61-6.75 155.48-5.75 157.18-5.75L157.18-5.75Q158.43-5.75 159.63-6.28 160.83-6.8 162.33-7.9L162.33-7.9 166.08-2.9Q164.33-1.15 161.88-0.08 159.43 1 156.43 1L156.43 1Q150.28 1 147.18-2.83 144.08-6.65 144.08-13.25L144.08-13.25Q144.08-19.8 147.03-23.75 149.98-27.7 155.58-27.7L155.58-27.7Q160.78-27.7 163.86-24.15 166.93-20.6 166.93-13.7L166.93-13.7ZM157.68-16L157.68-16.4Q157.68-19.25 157.28-20.5 156.88-21.75 155.68-21.75L155.68-21.75Q154.58-21.75 154.06-20.58 153.53-19.4 153.43-16L153.43-16 157.68-16ZM187.43-34.8Q194.18-34.8 197.73-31.83 201.28-28.85 201.28-23.15L201.28-23.15Q201.28-17.2 197.98-14.1 194.68-11 188.68-11L188.68-11 187.13-11 187.13 0 177.23 0 177.23-34.8 187.43-34.8ZM187.63-17.95Q189.68-17.95 190.45-19.15 191.23-20.35 191.23-23.15L191.23-23.15Q191.23-25.65 190.5-26.8 189.78-27.95 187.78-27.95L187.78-27.95 187.13-27.95 187.13-17.95 187.63-17.95ZM210.43 1Q206.68 1 204.65-1.13 202.63-3.25 202.63-6.95L202.63-6.95 202.63-37.2 212.13-38.2 212.13-7.45Q212.13-6.45 212.98-6.45L212.98-6.45Q213.28-6.45 213.68-6.55L213.68-6.55 215.28 0Q213.08 1 210.43 1L210.43 1ZM236.02-7.95Q236.02-6.75 236.25-6.23 236.47-5.7 237.17-5.35L237.17-5.35 235.27 0.8Q232.87 0.6 231.32-0.2 229.77-1 228.92-2.7L228.92-2.7Q226.47 1 222.17 1L222.17 1Q218.82 1 216.85-1.33 214.87-3.65 214.87-7.5L214.87-7.5Q214.87-11.9 217.65-14.25 220.42-16.6 225.77-16.6L225.77-16.6 226.77-16.6 226.77-17.35Q226.77-19.6 226.25-20.35 225.72-21.1 224.02-21.1L224.02-21.1Q221.97-21.1 218.47-19.8L218.47-19.8 216.42-25.6Q218.47-26.6 221.07-27.15 223.67-27.7 225.97-27.7L225.97-27.7Q231.07-27.7 233.55-25.38 236.02-23.05 236.02-17.9L236.02-17.9 236.02-7.95ZM225.32-5.65Q225.72-5.65 226.12-6.03 226.52-6.4 226.77-7L226.77-7 226.77-11.6 226.57-11.6Q225.22-11.6 224.62-10.83 224.02-10.05 224.02-8.4L224.02-8.4Q224.02-7.05 224.37-6.35 224.72-5.65 225.32-5.65L225.32-5.65ZM254.27-27.7Q257.07-27.7 258.67-25.68 260.27-23.65 260.27-20.15L260.27-20.15 260.27 0 250.77 0 250.77-19.25Q250.77-20.5 250.22-20.5L250.22-20.5Q249.62-20.5 248.37-18.35L248.37-18.35 248.37 0 238.87 0 238.87-26.7 247.17-26.7 247.82-24.05Q249.17-25.95 250.7-26.83 252.22-27.7 254.27-27.7L254.27-27.7Z" opacity="1" transform="matrix(1,0,0,1,0,0)" fill="#0fe627" class="undefined-text-0" data-fill-palette-color="primary" id="text-0"></path></svg></g></svg></g></svg></g></svg></g><g></g></svg></g></svg></g></svg></g></svg></g><defs></defs></svg><rect width="395.52" height="247.2" fill="none" stroke="none" visibility="hidden"></rect></g></svg></g></svg>