<?xml version="1.0" encoding="UTF-8" standalone="no"?>
<svg
   width="16"
   height="16"
   fill="white"
   class="bi bi-wallet"
   viewBox="0 0 16 16"
   version="1.1"
   id="svg12"
   sodipodi:docname="wallet-fill-white.svg"
   inkscape:version="1.2.2 (732a01da63, 2022-12-09)"
   xmlns:inkscape="http://www.inkscape.org/namespaces/inkscape"
   xmlns:sodipodi="http://sodipodi.sourceforge.net/DTD/sodipodi-0.dtd"
   xmlns="http://www.w3.org/2000/svg"
   xmlns:svg="http://www.w3.org/2000/svg">
  <defs
     id="defs16" />
  <sodipodi:namedview
     id="namedview14"
     pagecolor="#505050"
     bordercolor="#eeeeee"
     borderopacity="1"
     inkscape:showpageshadow="0"
     inkscape:pageopacity="0"
     inkscape:pagecheckerboard="0"
     inkscape:deskcolor="#505050"
     showgrid="false"
     inkscape:zoom="50.25"
     inkscape:cx="8"
     inkscape:cy="8"
     inkscape:window-width="1920"
     inkscape:window-height="991"
     inkscape:window-x="-9"
     inkscape:window-y="-9"
     inkscape:window-maximized="1"
     inkscape:current-layer="svg12" />
  <path
     d="M0 3a2 2 0 0 1 2-2h13.5a.5.5 0 0 1 0 1H15v2a1 1 0 0 1 1 1v8.5a1.5 1.5 0 0 1-1.5 1.5h-12A2.5 2.5 0 0 1 0 12.5V3zm1 1.732V12.5A1.5 1.5 0 0 0 2.5 14h12a.5.5 0 0 0 .5-.5V5H2a1.99 1.99 0 0 1-1-.268zM1 3a1 1 0 0 0 1 1h12V2H2a1 1 0 0 0-1 1z"
     id="path10" />
  <rect
     style="fill:#ffffff"
     id="rect174"
     width="14.825871"
     height="9.5124378"
     x="0.5771144"
     y="4.477612" />
</svg>
