<?xml version="1.0" encoding="UTF-8" standalone="no"?>
<!-- Created with Inkscape (http://www.inkscape.org/) -->

<svg
   width="124.26938mm"
   height="105.83335mm"
   viewBox="0 0 124.26938 105.83335"
   version="1.1"
   id="svg5"
   inkscape:version="1.2.2 (732a01da63, 2022-12-09)"
   sodipodi:docname="disegno.svg"
   xml:space="preserve"
   xmlns:inkscape="http://www.inkscape.org/namespaces/inkscape"
   xmlns:sodipodi="http://sodipodi.sourceforge.net/DTD/sodipodi-0.dtd"
   xmlns="http://www.w3.org/2000/svg"
   xmlns:svg="http://www.w3.org/2000/svg"><sodipodi:namedview
     id="namedview7"
     pagecolor="#ffffff"
     bordercolor="#000000"
     borderopacity="0.25"
     inkscape:showpageshadow="2"
     inkscape:pageopacity="0.0"
     inkscape:pagecheckerboard="0"
     inkscape:deskcolor="#d1d1d1"
     inkscape:document-units="mm"
     showgrid="false"
     inkscape:zoom="1.0129245"
     inkscape:cx="601.72303"
     inkscape:cy="762.64322"
     inkscape:window-width="1920"
     inkscape:window-height="991"
     inkscape:window-x="-9"
     inkscape:window-y="-9"
     inkscape:window-maximized="1"
     inkscape:current-layer="g2916" /><defs
     id="defs2"><inkscape:path-effect
       effect="fillet_chamfer"
       id="path-effect2862"
       is_visible="true"
       lpeversion="1"
       nodesatellites_param="F,0,0,1,0,0,0,1 @ F,0,0,1,0,0,0,1 @ F,0,0,1,0,0,0,1"
       unit="px"
       method="auto"
       mode="F"
       radius="0"
       chamfer_steps="1"
       flexible="false"
       use_knot_distance="true"
       apply_no_radius="true"
       apply_with_radius="true"
       only_selected="false"
       hide_knots="false" /><linearGradient
       id="linearGradient3685"
       inkscape:swatch="solid"><stop
         style="stop-color:#000000;stop-opacity:1;"
         offset="0"
         id="stop3683" /></linearGradient></defs><g
     inkscape:label="Livello 1"
     inkscape:groupmode="layer"
     id="layer1"
     transform="translate(-44.277009,-121.90316)"><g
       id="g2916"
       inkscape:export-filename="g2916.svg"
       inkscape:export-xdpi="96"
       inkscape:export-ydpi="96"><g
         id="g2663"><rect
           style="fill:#01eb54;fill-opacity:1;stroke-width:19.2985"
           id="rect2838"
           width="16.346682"
           height="24.75"
           x="183.93871"
           y="143.79639"
           rx="3.5401297"
           ry="3.7570093"
           transform="matrix(0,1,1,0,0,0)" /><rect
           style="fill:#01eb54;fill-opacity:1;stroke-width:19.2985"
           id="rect2838-7"
           width="16.346682"
           height="24.75"
           x="147.89209"
           y="143.75912"
           rx="3.5401297"
           ry="3.7570093"
           transform="matrix(0,1,1,0,0,0)" /><path
           sodipodi:type="star"
           style="fill:#01eb54;fill-opacity:1;stroke-width:15.875"
           id="path2756-3"
           inkscape:flatsided="true"
           sodipodi:sides="3"
           sodipodi:cx="33.800373"
           sodipodi:cy="126.33582"
           sodipodi:r1="18.806929"
           sodipodi:r2="9.4034643"
           sodipodi:arg1="0.78539816"
           sodipodi:arg2="1.8325957"
           inkscape:rounded="-3.469447e-18"
           inkscape:randomized="0"
           inkscape:transform-center-x="3.3746311"
           inkscape:transform-center-y="-1.3265961"
           transform="matrix(0.96582116,0.11273951,-0.11273951,0.96582116,43.968904,38.074203)"
           d="M 47.09888,139.63433 15.634275,131.20341 38.667964,108.16972 Z"
           inkscape:path-effect="#path-effect2862"
           inkscape:label="path2756-3" /></g><path
         id="path320"
         style="fill:#3b3b3b;fill-opacity:1;stroke-width:15.875"
         d="m 101.77053,121.90315 a 52.916668,52.916668 0 0 0 -49.837266,35.15496 l 19.052067,-15.06884 2.656169,18.11465 a 31.75,31.75 0 0 1 28.12903,-17.0341 31.75,31.75 0 0 1 31.75,31.75 31.75,31.75 0 0 1 -31.75,31.75 31.75,31.75 0 0 1 -31.69212,-29.8912 l -20.83232,-8.27236 a 52.916668,52.916668 0 0 0 -0.392224,6.41356 52.916668,52.916668 0 0 0 52.916664,52.91667 52.916668,52.916668 0 0 0 52.91667,-52.91667 52.916668,52.916668 0 0 0 -52.91667,-52.91667 z" /></g></g></svg>
